HIERARCHY
ROOT Hips
{
    OFFSET   0.000000   0.000000   0.000000
    CHANNELS 6 Xposition Yposition Zposition Zrotation Xrotation Yrotation
    JOINT Chest
    {
        OFFSET   0.000000   8.007230   0.000000
        CHANNELS 3 Zrotation Xrotation Yrotation
        JOINT Chest2
        {
            OFFSET   0.000000  22.077100   0.000000
            CHANNELS 3 Zrotation Xrotation Yrotation
            JOINT Neck
            {
                OFFSET   0.000000  23.254800  -0.000021
                CHANNELS 3 Zrotation Xrotation Yrotation
                JOINT Head
                {
                    OFFSET   0.000000  14.370000   1.956610
                    CHANNELS 3 Zrotation Xrotation Yrotation
                    End Site
                    {
                        OFFSET   0.000000  19.566000   0.000000
                    }
                }
            }
            JOINT LeftCollar
            {
                OFFSET   3.911900  19.017000  -0.467063
                CHANNELS 3 Zrotation Xrotation Yrotation
                JOINT LeftShoulder
                {
                    OFFSET  10.383700   0.000000   0.000000
                    CHANNELS 3 Zrotation Xrotation Yrotation
                    JOINT LeftElbow
                    {
                        OFFSET  26.662100   0.001529   0.000325
                        CHANNELS 3 Zrotation Xrotation Yrotation
                        JOINT LeftWrist
                        {
                            OFFSET  28.869000  -0.000011  -0.000096
                            CHANNELS 3 Zrotation Xrotation Yrotation
                            JOINT LeftFinger0
                            {
                                OFFSET   2.044650  -2.323460   3.252850
                                CHANNELS 3 Zrotation Xrotation Yrotation
                                JOINT LeftFinger01
                                {
                                    OFFSET   3.088130   0.000000   0.000000
                                    CHANNELS 3 Zrotation Xrotation Yrotation
                                    JOINT LeftFinger02
                                    {
                                        OFFSET   2.639460   0.000000   0.000000
                                        CHANNELS 3 Zrotation Xrotation Yrotation
                                        End Site
                                        {
                                            OFFSET   2.582190   0.000000   0.000000
                                        }
                                    }
                                }
                            }
                            JOINT LeftFinger1
                            {
                                OFFSET   8.364480   0.000000   3.252850
                                CHANNELS 3 Zrotation Xrotation Yrotation
                                JOINT LeftFinger11
                                {
                                    OFFSET   4.646930   0.000000   0.000000
                                    CHANNELS 3 Zrotation Xrotation Yrotation
                                    JOINT LeftFinger12
                                    {
                                        OFFSET   2.323460   0.000000   0.000000
                                        CHANNELS 3 Zrotation Xrotation Yrotation
                                        End Site
                                        {
                                            OFFSET   2.273050   0.000000   0.000000
                                        }
                                    }
                                }
                            }
                            JOINT LeftFinger2
                            {
                                OFFSET   8.364480   0.000016   1.078090
                                CHANNELS 3 Zrotation Xrotation Yrotation
                                JOINT LeftFinger21
                                {
                                    OFFSET   5.111620   0.000000   0.000000
                                    CHANNELS 3 Zrotation Xrotation Yrotation
                                    JOINT LeftFinger22
                                    {
                                        OFFSET   2.788160   0.000017   0.000000
                                        CHANNELS 3 Zrotation Xrotation Yrotation
                                        End Site
                                        {
                                            OFFSET   2.727660   0.000000   0.000000
                                        }
                                    }
                                }
                            }
                            JOINT LeftFinger3
                            {
                                OFFSET   7.899780   0.000015  -1.078090
                                CHANNELS 3 Zrotation Xrotation Yrotation
                                JOINT LeftFinger31
                                {
                                    OFFSET   4.646920   0.000000   0.000000
                                    CHANNELS 3 Zrotation Xrotation Yrotation
                                    JOINT LeftFinger32
                                    {
                                        OFFSET   2.323470   0.000000   0.000000
                                        CHANNELS 3 Zrotation Xrotation Yrotation
                                        End Site
                                        {
                                            OFFSET   2.273050   0.000000   0.000000
                                        }
                                    }
                                }
                            }
                            JOINT LeftFinger4
                            {
                                OFFSET   7.435090   0.000000  -3.252850
                                CHANNELS 3 Zrotation Xrotation Yrotation
                                JOINT LeftFinger41
                                {
                                    OFFSET   3.717550   0.000000   0.000000
                                    CHANNELS 3 Zrotation Xrotation Yrotation
                                    JOINT LeftFinger42
                                    {
                                        OFFSET   1.858760   0.000000   0.000000
                                        CHANNELS 3 Zrotation Xrotation Yrotation
                                        End Site
                                        {
                                            OFFSET   1.818440   0.000000   0.000000
                                        }
                                    }
                                }
                            }
                        }
                    }
                }
            }
            JOINT RightCollar
            {
                OFFSET  -3.911900  19.017000  -0.467062
                CHANNELS 3 Zrotation Xrotation Yrotation
                JOINT RightShoulder
                {
                    OFFSET -10.383700   0.000015   0.000000
                    CHANNELS 3 Zrotation Xrotation Yrotation
                    JOINT RightElbow
                    {
                        OFFSET -26.662100   0.001341   0.000385
                        CHANNELS 3 Zrotation Xrotation Yrotation
                        JOINT RightWrist
                        {
                            OFFSET -28.869000   0.000025  -0.000080
                            CHANNELS 3 Zrotation Xrotation Yrotation
                            JOINT RightFinger0
                            {
                                OFFSET  -2.044650  -2.323490   3.252850
                                CHANNELS 3 Zrotation Xrotation Yrotation
                                JOINT RightFinger01
                                {
                                    OFFSET  -3.088130   0.000000   0.000000
                                    CHANNELS 3 Zrotation Xrotation Yrotation
                                    JOINT RightFinger02
                                    {
                                        OFFSET  -2.639460   0.000000   0.000000
                                        CHANNELS 3 Zrotation Xrotation Yrotation
                                        End Site
                                        {
                                            OFFSET  -2.582190   0.000000   0.000000
                                        }
                                    }
                                }
                            }
                            JOINT RightFinger1
                            {
                                OFFSET  -8.364480   0.000000   3.252850
                                CHANNELS 3 Zrotation Xrotation Yrotation
                                JOINT RightFinger11
                                {
                                    OFFSET  -4.646930   0.000000   0.000000
                                    CHANNELS 3 Zrotation Xrotation Yrotation
                                    JOINT RightFinger12
                                    {
                                        OFFSET  -2.323470   0.000000   0.000000
                                        CHANNELS 3 Zrotation Xrotation Yrotation
                                        End Site
                                        {
                                            OFFSET  -2.273050   0.000000   0.000000
                                        }
                                    }
                                }
                            }
                            JOINT RightFinger2
                            {
                                OFFSET  -8.364480   0.000000   1.078090
                                CHANNELS 3 Zrotation Xrotation Yrotation
                                JOINT RightFinger21
                                {
                                    OFFSET  -5.111610   0.000000   0.000000
                                    CHANNELS 3 Zrotation Xrotation Yrotation
                                    JOINT RightFinger22
                                    {
                                        OFFSET  -2.788160   0.000000   0.000000
                                        CHANNELS 3 Zrotation Xrotation Yrotation
                                        End Site
                                        {
                                            OFFSET  -2.727660   0.000000   0.000000
                                        }
                                    }
                                }
                            }
                            JOINT RightFinger3
                            {
                                OFFSET  -7.899780   0.000000  -1.078090
                                CHANNELS 3 Zrotation Xrotation Yrotation
                                JOINT RightFinger31
                                {
                                    OFFSET  -4.646920   0.000000   0.000000
                                    CHANNELS 3 Zrotation Xrotation Yrotation
                                    JOINT RightFinger32
                                    {
                                        OFFSET  -2.323470   0.000000   0.000000
                                        CHANNELS 3 Zrotation Xrotation Yrotation
                                        End Site
                                        {
                                            OFFSET  -2.273050   0.000000   0.000000
                                        }
                                    }
                                }
                            }
                            JOINT RightFinger4
                            {
                                OFFSET  -7.435090   0.000000  -3.252850
                                CHANNELS 3 Zrotation Xrotation Yrotation
                                JOINT RightFinger41
                                {
                                    OFFSET  -3.717550   0.000000   0.000000
                                    CHANNELS 3 Zrotation Xrotation Yrotation
                                    JOINT RightFinger42
                                    {
                                        OFFSET  -1.858770   0.000000   0.000000
                                        CHANNELS 3 Zrotation Xrotation Yrotation
                                        End Site
                                        {
                                            OFFSET  -1.818440   0.000000   0.000000
                                        }
                                    }
                                }
                            }
                        }
                    }
                }
            }
        }
    }
    JOINT LeftHip
    {
        OFFSET   9.783010   0.000000   0.000000
        CHANNELS 3 Zrotation Xrotation Yrotation
        JOINT LeftKnee
        {
            OFFSET   0.000070 -41.789100   0.000028
            CHANNELS 3 Zrotation Xrotation Yrotation
            JOINT LeftAnkle
            {
                OFFSET   0.000087 -41.133200  -0.000100
                CHANNELS 3 Zrotation Xrotation Yrotation
                JOINT LeftToe
                {
                    OFFSET   0.000000  -6.358960  14.674500
                    CHANNELS 3 Zrotation Xrotation Yrotation
                    End Site
                    {
                        OFFSET   0.000000   0.000000   3.913200
                    }
                }
            }
        }
    }
    JOINT RightHip
    {
        OFFSET  -9.783020   0.000000   0.000000
        CHANNELS 3 Zrotation Xrotation Yrotation
        JOINT RightKnee
        {
            OFFSET   0.000044 -41.789100  -0.000870
            CHANNELS 3 Zrotation Xrotation Yrotation
            JOINT RightAnkle
            {
                OFFSET  -0.000090 -41.133200  -0.000245
                CHANNELS 3 Zrotation Xrotation Yrotation
                JOINT RightToe
                {
                    OFFSET   0.000000  -6.358960  14.674500
                    CHANNELS 3 Zrotation Xrotation Yrotation
                    End Site
                    {
                        OFFSET   0.000000   0.000000   3.913200
                    }
                }
            }
        }
    }
}
MOTION
Frames: 4
Frame Time:   0.016667
 -3.897370  89.327000  -0.649250  -0.968757  -5.866880 -12.106500   1.883860   4.761380  -2.595020   4.003400   9.429400  -5.373700   5.282850   1.065550  -0.098549   8.686290   2.106210  -6.705020  -4.206980   4.708030   7.639720 -79.145100  13.619900  -4.922250  -1.741450   1.272300 -14.674700  10.402200  -2.868140  -2.244950  41.845800  36.536000 -52.768900 -32.492300   0.030847   0.019699 -11.246200   0.016087  -0.000685 -36.061100  -0.915516   1.257060 -29.512800  -0.001968  -0.001120 -20.658900   0.002582   0.013457 -32.555300  -3.679360   5.740280 -49.109800  -0.001470  -0.004902 -32.707100   0.011934  -0.030482 -28.675700  -4.025760   7.314610 -43.399800  -0.022931  -0.031941 -28.904200  -0.007327  -0.026073 -36.337100  -4.966870   6.713100 -54.942900   0.000352   0.000000 -36.592000  -0.000612   0.000106   5.046550   4.277680   5.858280  66.681500 -16.176400  49.858000  -2.590660 -27.050600 102.105000  53.316000 -17.954600  32.012200 -60.885600  37.726700  64.762300 -24.245700   0.001228  -0.002635 -15.000000   0.001895  -0.001323  88.996100   5.002030   0.088516 100.904000  -0.010765   0.000350  75.678200   0.002441   0.006729  89.000000   0.001694  -0.005827 105.622000  -0.005293   0.001035  79.216500  -0.003674   0.000000  88.995800  -5.005890  -0.091707 109.019000  -0.008276  -0.000516  79.999700  -0.007412  -0.000174  88.984600  -9.997440  -0.176540 110.001000  -0.005451  -0.004272  79.999900   0.000170   0.002495   2.705630   8.614680   0.958683   0.212347   3.937930  18.497300  -3.801630  -4.827190  -0.293893   0.000000   0.000000  -0.000000   0.580272   9.133810  -1.850350   2.373830   0.066322  -7.868460   0.618774  -3.084310  12.989600  -0.000000   0.000000   0.000000
 -3.860820  89.336300  -0.659460  -0.987954  -5.886190 -12.141300   1.868770   4.769570  -2.582780   3.972520   9.446960  -5.348270   5.245010   1.020650  -0.093728   8.623180   2.017680  -8.060820  -4.217370   4.702590   7.609810 -79.152900  13.592500  -4.873880  -1.755040   1.303930 -14.637300  10.351900  -2.802440  -2.252140  41.852700  36.561100 -52.851200 -32.511700   0.031452   0.020093 -11.255900   0.016428  -0.000684 -36.034500  -0.916244   1.260940 -29.491000  -0.002659  -0.002554 -20.643700   0.002583   0.010071 -32.525900  -3.679310   5.748310 -49.066000  -0.002757  -0.004853 -32.677900   0.014868  -0.039746 -28.656400  -4.023410   7.314270 -43.370400  -0.031097  -0.044051 -28.884600  -0.007324  -0.035739 -36.303300  -4.963060   6.714990 -54.891700  -0.000241  -0.003101 -36.558000  -0.000600  -0.002307   5.056380   4.210640   5.898680  66.194300 -16.057200  49.845700  -2.835780 -26.820900 101.516000  52.265900 -16.986200  31.097100 -60.352600  37.424400  64.322000 -24.191100   0.001258  -0.002634 -15.000000   0.001886  -0.001313  88.996100   5.001970   0.088514 101.191000  -0.011081   0.000364  75.893600   0.002521   0.006606  89.000000   0.001685  -0.005850 105.866000  -0.005141   0.001010  79.399400  -0.003704  -0.000032  88.995800  -5.005980  -0.091742 109.345000  -0.007831  -0.000473  79.999500  -0.007549  -0.000181  88.984600  -9.997430  -0.176545 110.001000  -0.005493  -0.004232  79.999900   0.000216   0.002439   2.693480   8.634660   0.961972   0.210782   3.941480  18.505100  -3.782400  -4.840580  -0.270341  -0.000000   0.000000   0.000000   0.580181   9.146350  -1.851050   2.364940   0.086245  -7.854380   0.623326  -3.092790  13.001400  -0.000000   0.000000  -0.000000
 -3.820180  89.345000  -0.667456  -1.004290  -5.896600 -12.169500   1.856770   4.775320  -2.562670   3.947070   9.459750  -5.307170   5.215160   0.982338  -0.089718   8.574730   1.942200  -9.005360  -4.239160   4.687460   7.551490 -79.154000  13.576700  -4.832290  -1.765960   1.354420 -14.579500  10.319500  -2.702030  -2.267650  41.858300  36.574200 -52.889700 -32.518300   0.031539   0.020150 -11.259200   0.016477  -0.000684 -35.989300  -0.916348   1.261490 -29.454000  -0.003021  -0.003346 -20.617800   0.002583   0.004995 -32.477800  -3.679220   5.761460 -48.994200  -0.005106  -0.004598 -32.630200   0.015287  -0.042493 -28.623600  -4.015610   7.312010 -43.320400  -0.034211  -0.046657 -28.851400  -0.007321  -0.038319 -36.246900  -4.952010   6.715150 -54.806300  -0.000788  -0.005047 -36.501100  -0.000516  -0.003825   5.067110   4.144930   5.918750  65.838500 -15.967900  49.873000  -3.009530 -26.665100 101.126000  51.654100 -16.527900  30.751800 -59.845300  37.127800  63.985500 -24.123400   0.001281  -0.002634 -15.000000   0.001877  -0.001303  88.996100   5.001920   0.088513 101.319000  -0.011412   0.000375  75.989200   0.002601   0.006461  89.000000   0.001678  -0.005870 106.050000  -0.004961   0.000984  79.537500  -0.003732  -0.000079  88.995800  -5.006070  -0.091773 109.574000  -0.007396  -0.000428  79.999400  -0.007684  -0.000182  88.984600  -9.997420  -0.176547 110.001000  -0.005535  -0.004193  79.999900   0.000262   0.002382   2.682720   8.651370   0.965254   0.210021   3.941810  18.514000  -3.762960  -4.849900  -0.252154   0.000000   0.000000   0.000000   0.579549   9.158890  -1.851750   2.357790   0.101854  -7.847390   0.626075  -3.099950  13.015900   0.000000   0.000000  -0.000000
 -3.777760  89.351300  -0.673548  -1.020740  -5.899040 -12.189800   1.849700   4.778790  -2.530770   3.930410   9.468180  -5.242670   5.187270   0.941435  -0.085102   8.530530   1.861760  -9.565180  -4.268290   4.663410   7.483880 -79.153600  13.569500  -4.804230  -1.781230   1.393230 -14.502000  10.320500  -2.564100  -2.289770  41.860500  36.571900 -52.885600 -32.501600   0.012924   0.010555 -11.250800   0.006802  -0.000683 -35.949000  -0.911036   1.255610 -29.420900  -0.001309  -0.001200 -20.594700   0.002583   0.002864 -32.435900  -3.679140   5.773910 -48.932000  -0.007513  -0.003825 -32.588700   0.008335  -0.024505 -28.594700  -4.001020   7.296330 -43.274900  -0.018848  -0.025312 -28.821100  -0.007322  -0.020878 -36.195500  -4.932800   6.703490 -54.724500  -0.001013  -0.002362 -36.446600  -0.000253  -0.002108   5.083290   4.077090   5.913590  65.655100 -15.968300  49.939900  -3.059150 -26.527600 100.984000  51.513800 -16.507300  30.919800 -59.480100  36.939300  63.904700 -24.049300   0.001290  -0.002637 -15.000000   0.001873  -0.001298  88.996100   5.001860   0.088511 101.308000  -0.011733   0.000385  75.980800   0.002674   0.006294  89.000000   0.001671  -0.005885 106.156000  -0.004767   0.000948  79.616900  -0.003757  -0.000106  88.995800  -5.006160  -0.091802 109.677000  -0.006964  -0.000381  79.999200  -0.007811  -0.000177  88.984600  -9.997410  -0.176545 110.001000  -0.005580  -0.004156  79.999900   0.000311   0.002322   2.680870   8.663750   0.955530   0.202337   3.933460  18.528700  -3.741400  -4.856190  -0.232546   0.000000   0.000000  -0.000000   0.578810   9.127500  -1.858620   2.348840   0.147930  -7.860710   0.621215  -3.105540  13.047900   0.000000   0.000000   0.000000
